<svg width="48" height="40" viewBox="0 0 48 40" fill="none" xmlns="http://www.w3.org/2000/svg">
<rect x="0.5" y="0.5" width="47" height="39" rx="3.5" fill="#FDFDFD"/>
<rect x="0.5" y="0.5" width="47" height="39" rx="3.5" stroke="#F3F3F3"/>
<g clip-path="url(#clip0_3676_23140)">
<path d="M19.6375 12.725H28.3625V4H19.6375V12.725ZM31.275 4V12.725H40V4H31.275ZM8 12.725H16.725V4H8V12.725ZM19.6375 24.3625H28.3625V15.6375H19.6375V24.3625ZM31.275 24.3625H40V15.6375H31.275V24.3625ZM8 24.3625H16.725V15.6375H8V24.3625ZM19.6375 36H28.3625V27.275H19.6375V36ZM31.275 36H40V27.275H31.275V36ZM8 36H16.725V27.275H8V36Z" fill="#64748B"/>
</g>
<defs>
<clipPath id="clip0_3676_23140">
<rect width="32" height="32" fill="white" transform="translate(8 4)"/>
</clipPath>
</defs>
</svg>
